<svg xmlns="http://www.w3.org/2000/svg" width="462" height="500" viewBox="0 0 462 499.79" shape-rendering="geometricPrecision"
     text-rendering="geometricPrecision" image-rendering="optimizeQuality" fill-rule="evenodd" clip-rule="evenodd">
    <path fill="#fff" fill-opacity="0" d="M0 499.79h462V0H0z" id="_2053658664848"/>
    <path fill="#005994"
          d="M278.95 306.78v-.41h.4v.41h-.4zm-1.22-10.16h.4v.41h-.4v-.41zm0 0h-.41v-.4h.41v.4zm-.41-.4h-.4v-.41h.4v.41zm-.4-.41h-.41v-.41h.41v.41zm-143.03-38.2h.4v.41h-.4v-.41zm9.75-1.21v.4h-.41v-.4h.41zm.41-.41v.41h-.41v-.41h.41zm.4-.41v.41h-.4v-.41h.4zm.41-.4v.4h-.41v-.4h.41zm172.28-91.02v.41h-.41v-.41h.41zm.41-.41v.41h-.41v-.41h.41zm.4-.4v.4h-.4v-.4h.4zm0 0v-.41h.41v.41h-.41zm9.35-1.63h-.41v-.4h.41v.4zm-10.57 2.85v.4h-.4v.41h-.41v.4h-.41v.41h-.4v.41h-.41v.4h-.4v.41h-.41v.41h-.41v.4h-.4v.41h-.41v.41h-.41v.4h-.4v.41h-.41v.41h-.4v.4h-.41v.41h-.41v.4h-.4v.41h-.41v.41h-.41v.4h-.4v.41h-.41v.41h-.4v.4h-.41v.41h-.41v.4h-.4v.41h-.41v.41h-.41v.4h-.4v.41h-.41v.41h-.41v.4h-.4v.41h-.41v.4h-.4v.41h-.41v.41h-.41v.4h-.4v.41h-.41v.41h-.41v.4h-.4v.41h-.41v.41h-.41v.4h-.4v.41h-.41v.41h-.4v.4h-.41v.41h-.41v.4h-.4v.41h-.41v.41h-.41v.4h-.4v.41h-.41v.41h-.4v.4h-.41v.41h-.41v.4h-.4v.41h-.41v.41h-.41v.4h-.4v.41h-.41v.41h-.41v.4h-.4v.41h-.41v.4h-.4v.41h-.41v.41h-.41v.4h-.4v.41h-.41v.41h-.41v.4h-.4v.41h-.41v.41h-.4v.4h-.41v.41h-.41v.4h-.4v.41h-.41v.41h-.41v.4h-.4v.41h-.41v.41h-.41v.4h-.4v.41h-.41v.41h-.4v.4h-.41v.41h-.41v.4h-.4v.41h-.41v.41h-.41v.4h-.4v.41h-.41v.41h-.4v.4h-.41v.41h-.41v.4h-.4v.41h-.41v.41h-.41v.4h-.4v.41h-.41v.41h-.4v.4h-.41v.41h-.41v.41h-.4v.4h-.41v.41h-.41v.4h-.4v.41h-.41v.41h-.41v.81h-.4v1.22h-.41v.81h.41v1.22h.4v.41h.41v.4h.41v.41h.4v.41h.41v.4h.41v.41h.4v.4h.41v.41h.41v.41h.4v.4h.41v.41h.4v.41h.41v.4h.41v.41h.4v.4h.41v.41h.41v.41h.4v.4h.41v.41h.4v.41h.41v.4h.41v.41h.4v.41h.41v.4h.41v.41h.4v.4h.41v.41h.4v.41h.41v.4h.41v.41h.4v.41h.41v.4h.41v.41h.4v.4h.41v.41h.41v.41h.4v.4h.41v.41h.4v.41h.41v.4h.41v.41h.4v.41h.41v.4h.41v.41h.4v.4h.41v.41h.4v.41h.41v.4h.41v.41h.4v.41h.41v.4h.41v.41h.4v.4h.41v.41h.41v.41h.4v.4h.41v.41h.4v.41h.41v.4h3.66v.41h4.06v.41h3.66v.4h3.65v.41h4.07v.4h3.66v.41h4.06v.41h-61.76v.4h-.81v.41h-.82v.41h-.4v.81h-.41v.81h-.41v32.1h.41v.41h.41v.81h.4v.41h.41v.4h.41v.41h.4v.81h.41v.41h.4v.4h.41v.82h.41v.4h.4v.41h.41v.41h.41v.81h.4v.41h.41v.4h.4v.41h.41v.81h.41v.41h.4v.4h.41v.82h.41v.4h.4v.41h.41v.41h.4v.81h.41v.4h.41v.41h.4v.41h.41v.81h.41v.41h.4v.4h.41v.81h.41v.41h.4v.41h.41v.4h.4v.82h.41v.4h.41v.41h.4v.41h.41v.81h.41v.4h.4v.41h.41v.81h-.41v-.4h-.4v-.41h-.41v-.41h-.41v-.4h-.4v-.41h-.41v-.4h-.41v-.41h-.4v-.41h-.41v-.4h-.4v-.41h-.41v-.41h-.41v-.4h-.4v-.41h-.41v-.41h-.41v-.4h-.4v-.41h-.41v-.4h-.41v-.41h-.4v-.41h-.41v-.4h-.4v-.41h-.41v-.41h-.41v-.4h-.4v-.41h-.41v-.4h-.41v-.41h-.4v-.41h-.41v-.4h-.4v-.41h-.41v-.41h-.41v-.4h-.4v-.41h-.41v-.41h-.41v-.4h-.4v-.41h-.41v-.4h-.4v-.41h-.41v-.41h-.41v-.4h-.4v-.41h-.41v-.41h-.41v-.4h-.4v-.41h-.41v-.41h-.41v-.4h-.4v-.41h-.41v-.4h-.4v-.41h-.41v-.41h-.41v-.4h-.4v-.41h-.41v-.41h-.41v-.4h-.4v-.41h-.41v-.4h-.41v-.41h-.4v-.41h-.41v-.4h-.4v-.41h-.41v-.41h-.41v-.4h-.4v-.41h-.41v-.41h-.41v-.4h-.4v-.41h-.41v-.4h-.4v-.41h-.41v-.41h-.41v-.4h-.4v-.41h-.41v-.41h-.41v-.4h-.4v-.41h-.41v-.41h-.41v-.4h-.4v-.41h-.41v-.4h-.4v-.41h-.41v-.41H244v-.4h-.4v-.41h-.41v-.41h-.41v-.4h-.4v-.41h-.41v-.4h-.41v-.41h-.4v-.41h-.41v-.4h-.4v-.41h-.41v-.41h-.41v-.4h-.4v-.41h-.41v-.41h-.41v-.4h-.4v-.41h-.41v-.4h-.4v-.41h-.41v-.41h-.41v-.4h-.4v-.41h-.41v-.41h-.41v-.4h-.4v-.41h-.41v-.41h-.41v-.4h-.4v-.41h-.81v-.4h-2.85v.4h-.41v.41h-.81v.4h-.4v.41h-.41v.41h-.41v.4h-.4v.41h-.41v.41h-.41v.4h-.4v.41h-.41v.41h-.41v.4h-.4v.41h-.41v.4h-.4v.41h-.41v.41h-.41v.4h-.4v.41h-.41v.41h-.41v.4h-.4v.41h-.41v.41h-.4v.4h-.41v.41h-.41v.4h-.4v.41h-.41v.41h-.41v.4h-.4v.41h-.41v.41h-.41v.4h-.4v.41h-.41v.4h-.4v.41h-.41v.41h-.41v.4h-.4v.41h-.41v.41h-.41v.4h-.4v.41h-.41v.41h-.41v.4h-.4v.41h-.41v.4h-.4v.41h-.41v.41h-.41v.4h-.4v.41h-.41v.41h-.41v.4h-.4v.41h-.41v.41h-.4v.4h-.41v.41h-.41v.4h-.4v.41h-.41v.41h-.41v2.84h-.4v3.25h-.41v3.25h-.41v3.25h-.4v3.25h-.41v3.25h-.4v3.26h-.41v3.25h-.41v3.25h-.4v-62.17h-.41v-1.22h-.41v-.41h-.4v-.4h-.41v-.41h-.41v-.41h-35.75v.41h-.41v.41h-.4v.4h-.41v.41h-.81v.4h-.41v.41h-.4v.41h-.41v.4h-.81v.41h-.41v.41h-.41v.4h-.4v.41h-.41v.41h-.81v.4h-.41v.41h-.4v.4h-.41v.41h-.81v.41h-.41v.4h-.41v.41h-.4v.41h-.41v.4h-.81v.41h-.41v.4h-.4v.41h-.41v.41h-.81v.4h-.41v.41h-.41v.41h-.4v.4h-.41v.41h-.81v.41h-.41v.4h-.4v.41h-.41v.4h-.81v.41h-.41v.41h-.4v.4h-.41v.41h-.41v.41h-.81v-.41h.41v-.41h.4v-.4h.41v-.41h.41v-.41h.4v-.4h.41v-.41h.4v-.4h.41v-.41h.41v-.41h.4v-.4h.41v-.41h.41v-.41h.4v-.4h.41v-.41h.4v-.41h.41v-.4h.41v-.41h.4v-.4h.41v-.41h.41v-.41h.4v-.4h.41v-.41h.4v-.41h.41v-.4h.41v-.41h.4v-.4h.41v-.41h.41v-.41h.4v-.4h.41v-.41h.41v-.41h.4v-.4h.41v-.41h.4v-.41h.41v-.4h.41v-.41h.4v-.4h.41v-.41h.41v-.41h.4v-.4h.41v-.41h.41v-.41h.4v-.4h.41v-.41h.4v-.4h.41v-.41h.41v-.41h.4v-.4h.41v-.41h.41v-.41h.4v-.4h.41v-.41h.4v-.41h.41v-.4h.41v-.41h.4v-.4h.41v-.41h.41v-.41h.4v-.4h.41v-.41h.41v-.41h.4v-.4h.41v-.41h.4v-.4h.41v-.41h.41v-.41h.4v-.4h.41v-.41h.41v-.41h.4v-.4h.41v-.41h.4v-.41h.41v-.4h.41v-.41h.4v-.4h.41v-.41h.41v-.41h.4v-.4h.41v-.41h.41v-.41h.4v-.4h.41v-.41h.4v-.4h.41v-.41h.41v-.41h.4v-.4h.41v-.41h.41v-.41h.4v-.4h.41v-.41h.4v-.41h.41v-.4h.41v-.41h.4v-.4h.41v-.41h.41v-.41h.4v-.4h.41v-.41h.4v-.41h.41v-.4h.41v-.41h.4v-.4h.41v-.41h.41v-.41h.4v-.4h.41v-.41h.41v-1.22h.4v-1.62h-.4v-.82h-.41v-.81h-.41v-.41h-.4v-.4h-.41v-.41h-.41v-.4h-.4v-.41h-.41v-.41h-.41v-.4h-.4v-.41h-.41v-.41h-.4v-.4h-.41v-.41h-.41v-.41h-.4v-.4h-.41v-.41h-.41v-.4h-.4v-.41h-.41v-.41h-.4v-.4h-.41v-.41h-.41v-.41h-.4v-.4h-.41v-.41h-.41v-.4h-.4v-.41h-.41v-.41h-.4v-.4h-.41v-.41h-.41v-.41h-.4v-.4h-.41v-.41h-.41v-.41h-.4v-.4h-.41v-.41h-.41v-.4h-.4v-.41h-.41v-.41h-.4v-.4h-.41v-.41h-.41v-.41h-.4v-.4h-.41v-.41h-.41v-.41h-.4v-.4h-.41v-.41h-.4v-.4h-.41v-.41h-.41v-.41h-.4v-.4h-.41v-.41h-.41v-.41h-.4v-.4h-.41v-.41h-.41v-.4h-.4v-.41h-.41v-.41h-.4v-.4h-.41v-.41h-.41v-.41h-2.84v-.4h-4.47v-.41h-4.06v-.4h-4.47v-.41h-4.07v-.41h-4.47v-.4h-4.06v-.41h64.2v-.41h.4v-.4h.41v-.41h.41v-.41h.4v-.81h.41v-32.91h-.41v-.41h-.4v-.81h-.41v-.41h-.41v-.4h-.4v-.41h-.41v-.81h-.4v-.41h-.41v-.41h-.41v-.4h-.4v-.81h-.41v-.41h-.41v-.41h-.4v-.4h-.41v-.82h-.4v-.4h-.41v-.41h-.41v-.4h-.4v-.82h-.41v-.4h-.41v-.41h-.4v-.41h-.41v-.81h-.4v-.4h-.41v-.41h-.41v-.41h-.4v-.81h-.41v-.41h-.41v-.4h-.4v-.41h-.41v-.81h-.41v-.41h-.4v-.4h-.41v-.41h-.4V128h-.41v-.41h-.41v-.41h-.4v-.4h-.41v-.82h-.41v-.4h-.4v-.41h-.41v-.81h.41v.41h.4v.4h.41v.41h.41v.4h.4v.41h.41v.41h.41v.4h.4v.41h.41v.41h.4v.4h.41v.41h.41v.41h.4v.4h.41v.41h.41v.4h.4v.41h.41v.41h.41v.4h.4v.41h.41v.41h.4v.4h.41v.41h.41v.41h.4v.4h.41v.41h.41v.4h.4v.41h.41v.41h.4v.4h.41v.41h.41v.41h.4v.4h.41v.41h.41v.4h.4v.41h.41v.41h.4v.4h.41v.41h.41v.41h.4v.4h.41v.41h.41v.4h.4v.41h.41v.41h.41v.4h.4v.41h.41v.41h.4v.4h.41v.41h.41v.41h.4v.4h.41v.41h.41v.41h.4v.4h.41v.41h.41v.4h.4v.41h.41v.41h.4v.4h.41v.41h.41v.41h.4v.4h.41v.41h.41v.4h.4v.41h.41v.41h.4v.4h.41v.41h.41v.41h.4v.4h.41v.41h.41v.4h.4v.41h.41v.41h.41v.4h.4v.41h.41v.41h.4v.4h.41v.41h.41v.41h.4v.4h.41v.41h.41v.41h.4v.4h.41v.41h.41v.4h.4v.41h.41v.41h.4v.4h.41v.41h.41v.41h.4v.4h.41v.41h.41v.4h.4v.41h.41v.41h.4v.4h.41v.41h.41v.41h.4v.4h.41v.41h.41v.4h.4v.41h.41v.41h.41v.4h.81v.41h.81v.41h1.63v-.41h1.22V167h.4v-.4h.41v-.41h.4v-.41h.41v-.4h.41v-.41h.4v-.4h.41v-.41h.41v-.41h.4v-.4h.41v-.41h.41v-.41h.4v-.4h.41v-.41h.4v-.4h.41v-.41h.41v-.41h.4v-.4h.41v-.41h.41v-.41h.4v-.4h.41v-.41h.4v-.4h.41v-.41h.41v-.41h.4v-.4h.41v-.41h.41v-.41h.4v-.4h.41v-.41h.41v-.41h.4v-.4h.41V154h.4v-.41h.41v-.4h.41v-.41h.4v-.4h.41v-.41h.41v-.41h.4v-.4h.41v-.41h.41v-.41h.4v-.4h.41v-.41h.4v-.4h.41v-.41h.41v-.41h.4v-.4h.41v-.41h.41v-.41h.4v-.4h.41v-.41h.4v-.4h.41v-.41h.41v-.41h.4v-.4h.41v-.41h.41v-.41h.4v-1.62h.41v-4.07h.41v-4.06h.4v-3.66h.41v-4.06h.4v-3.66h.41v-4.06h.41v-3.66h.4v63.8h.41v.4h.41v.82h.4v.4h.82v.41h34.94v-.41h.4v-.4h.41v-.41h.81v-.41h.41v-.4h.41v-.41h.4v-.41h.81v-.4h.41v-.41h.41v-.4h.4v-.41h.82v-.41h.4v-.4h.41v-.41h.41v-.41h.4v-.4h.81v-.41h.41v-.4h.41v-.41h.4v-.41h.82v-.4h.4v-.41h.41v-.41h.41v-.4h.81v-.41h.4v-.4h.41v-.41h.41v-.41h.81v-.4h.41v-.41h.4v-.41h.41v-.4h.81v-.41h.41V167h.4v-.4h.41v-.41h.81v-.41h.41v-.4h.4v-.41h.41v-.4h.81zm-131.24-40.23h-.41v-.41h.41v.41zm-.41-.41h-.4v-.4h.4v.4zm-.4-.4h-.41v-.41h.41v.41zm-.41-.41h-.4v-.41h.4v.41zm-2.03-9.34v.4h-.41v-.4h.41zm0 0v-.82h.41v-.81h.4v-.81h.41v-.41h.41v-.81h.4v-.81h.41v-.82h.4v-.81h.41v-.41h.41v-.81h.4v-.81h.41v-.81h.41v-.41h.4v-.81h.41v-.82h.41v-.81h.4v-.81h.41v-.41h.4v-.81h.41v-.81h.41v-.81h.4v-.82h.41v-.4h.41v-.82h.4v-.81h.41v-.81h.41v-.41h.4v-.81h.41v-.81h.4v-.82h.41v-.81h.41v-.4h.4v-.82h.41v-.81h.41v-.81h.4v-.82h.41v-.4h.4v-.81h.41v-.82h.41v-.81h.4v-.41h.41v-.81h.41v-.81h.4v-.81h.41v-.82h.4v-.4h.41v-.82h.41v-.81h.4v-.81h.41V76.8h-.41v-.81h-.4v-.81h-.41v-.41h-.81v-.41h-69.48v.41h-.41v.41h-.4v.4h-.41v.41h-.41v1.22h-.4v97.92h-.41v-1.22h-.41v-1.62h-.4v-1.22h-.41v-1.22h-.41v-1.63h-.4V167h-.41v-1.62h-.4v-1.22h-.41v-1.63h-.41v-1.21h-.4v-1.63h-.41v-1.22h-.41v-1.22h-.4v-1.62h-.41v-1.22h-.41v-1.63h-.4v-1.22h-.41v-1.62h-.4v-1.22h-.41v-1.63h-.41v-1.21h-.4v-1.63h-.41v-1.22h-.41v-1.22h-.4v-1.62h-.41v-1.22h-.4v-1.63h-.41v-.81h-.41v-.41h-1.22v-.4h-2.03v.4h-.81v.41h-.41v.41h-.4v.4h-.41v.41h-.41v.4h-.4v.41h-.41v.41h-.41v.4h-.4v.41h-.41v.41h-.4v.4h-.41v.41h-.41v.4h-.4v.41h-.41v.41h-.41v.4h-.4v.41h-.41v.41h-.4v.4h-.41v.41h-.41v.41h-.4v.4h-.41v.41h-.41v.41h-.4v.4h-.41v.41h-.41v.4h-.4v.41h-.41v.41h-.4v.4h-.41v.41h-.41v.41h-.4v.4h-.41v.41h-.41v.4h-.4v.41h-.41v.41h-.41v.4h-.4v.41h-.41v.41h-.4v.4h-.41v.41h-.41v.4h-.4v.41h-.41v.41h-.41v.4h-.4v.41h-.41v.41h-.4v.4h-.41v.41h-.41v.41h-.4v.4h-.41v.41h-.41v.41h-.4v.4h-.41v.41H90v.4h-.4v.41h-.41v.41h-.4v.4h-.41v.41h-.41v.41h-.4v.4h-.41v.41h-.41v.4h-.4v.41h-.41v.41h-.4v.4h-.41v.41h-.41v.41h-.4v.4h-.41v.41h-.41v.4h-.4v.41h-.41v.41h-.41v.4h-.4v.41h-.41v.41h-.4v.4h-.41v.41h-.41v.41h-.4v.4h-.41v.41h-.41v.41h-.4v.4h-.41v.41h-.4v.4h-.41v.41H77v.41h-.4v.4h-.41v.41h-.41v.41h-.4v.4h-.41v.41h-.41v.4h-.4v.41h-.41v.41h-.4v.4h-.41v.41h-.41v.41h-.4v.4h-.41v.41h-.41v.4h-.4v.41h-.41v.41h-.4v.4h-.41v.41h-.41v.41h-.4v.4h-.41v.41h-.41v.41h-.4v.4h-.41v.41h-.41v.41h-.4v.4h-.41v.41h-.4v.4h-.41v.41h-.41v.41h-.4v3.25h.4v.4h.41v.82h.41v.4h.4v.41h.41v.4h.4v.41h.41v.41h.41v.4h.4v.41h.41v.41h.41v.4h.4v.41h.41v.41h.41v.4h.4v.41h.41v.4h.4v.41h.41v.41h.41v.4h.4v.41h.41v.41h.41v.4h.4v.41h.41v.41h.4v.4h.41v.41h.41v.4h.4v.41h.41v.41h.41v.4h.4v.41h.41v.41h.41v.4h.4v.41h.41v.4h.4v.41h.41v.41h.41v.4h.4v.41h.41v.41h.41v.4h.4v.41h.41v.41h.4v.4h.41v.41h.41v.4h.4v.41h.41v.41h.41v.4h.4v.41h.41v.41h.41v.4h.4v.41h.41v.4h.4v.41h.41v.41h.41v.4h.4v.41h.41v.41h.41v.4h.4v.41h.41v.41h.4v.4h.41v.41h.41v.4h.4v.41h.41v.41h.41v.4h.4v.41h.41v.41h.41v.4h.4v.41h.41v.4h.4v.41h.41v.41h.41v.4h.4v.41h.41v.41h.41v.4h.4v.41h.41v.41h.4v.4h.41v.41h.41v.4h.4v.41h.41v.41h.41v.4h.4v.41h.41v.41h.41v.4h.4v.41h.41v.4h.4v.41h.41v.41h.41v.4h.4v.41h.41v.41h.41v.4h.4v.41h.41v.41h.41v.4h.4v.41h.41v.4h.4v.41h.41v.41h.41v.4h.4v.41h.41v.41h.41v.4h.4v.41h.41v.4h.4v.41h.41v.41h.41v.4h.4v.41h.41v.41h.41v.4h.4v.41h.41v.41h.41v.4h.4v.41h.41v.4h.4v.41h.41v.41h.41v.4h.4v.41h.41v.41h.41v.4h.4v.41h.41v.4h.41v.41h.4v.41h.41v.4h.4v.41h.41v.41h.41v.4h.4v.41h.41v.41h.41v.4h.4v.41h.41v.4h.4v.41h.41v.41h.41v.4h.4v.41h.41v.41h.41v.4h.4v.41h.41v.4h.41v.41h.4v.41h.41v.4h.4v.41h.41v.41h.41v.4h.4v.41h.41v.41h.41v.4h.4v.41h.41v.4h.41v.41h.4v.41h.41v.4h.4v.41h.41v.41h.41v.4h.4v.41h.41v.41h.41v.4h.4v.41h.41v.4h-.81v-.4h-.82v-.41h-.4v-.4h-.82v-.41h-.81v-.41h-.81v-.4h-.81v-.41h-.41v-.41h-.81v-.4h-.82v-.41h-.81v-.41h-.81v-.4h-.81v-.41h-.41v-.4h-.81v-.41h-.82v-.41h-.81v-.4h-.81v-.41h-.41v-.41h-.81v-.4h-.81v-.41h-.81v-.41h-.82v-.4h-.4v-.41h-.82v-.4h-.81v-.41h-.81v-.41h-.81v-.4h-.82v-.41h-.4v-.41h-.82v-.4h-.81v-.41h-.81v-.4h-.81v-.41h-.41v-.41h-.81v-.4h-.82v-.41h-.81v-.41h-.81v-.4h-.81v-.41h-.41v-.41h-.81v-.4h-.82v-.41h-.81v-.4h-.81v-.41h-.41v-.41h-2.44v.41h-.81v.41h-.4v.4h-.41v.81h-.41v68.67h.41v.82h.41v.4h.4v.41h.41v.41h.81v.4h99.14v.41h-1.21v.41h-1.63v.4h-1.22v.41h-1.62v.4h-1.22v.41h-1.63v.41h-1.22v.4h-1.62v.41h-1.63v.41h-1.22v.4h-1.62v.41h-1.22v.4h-1.63v.41h-1.21v.41h-1.63v.4h-1.22v.41h-1.62v.41h-1.22v.4h-1.63v.41h-1.22v.41h-1.62v.4h-1.63v.41h-1.22v.4h-1.62v.41h-1.22v.41h-1.63v.4h-1.22v.41h-.81v.81h-.4v1.22h-.41v.81h.41v1.22h.4v.82h.41v.4h.4v.41h.41v.4h.41v.41h.4v.41h.41v.4h.41v.41h.4v.41h.41v.4h.41v.41h.4v.4h.41v.41h.4v.41h.41v.4h.41v.41h.4v.41h.41v.4h.41v.41h.4v.41h.41v.4h.4v.41h.41v.4h.41v.41h.4v.41h.41v.4h.41v.41h.4v.41h.41v.4h.41v.41h.4v.4h.41v.41h.4v.41h.41v.4h.41v.41h.4v.41h.41v.4h.41v.41h.4v.41h.41v.4h.4v.41h.41v.4h.41v.41h.4v.41h.41v.4h.41v.41h.4v.41h.41v.4h.41v.41h.4v.4h.41v.41h.4v.41h.41v.4h.41v.41h.4v.41h.41v.4h.41v.41h.4v.41h.41v.4h.4v.41h.41v.4h.41v.41h.4v.41h.41v.4h.41v.41h.4v.41h.41v.4h.4v.41h.41v.41h.41v.4h.4v.41h.41v.4h.41v.41h.4v.41h.41v.4h.41v.41h.4v.41h.41v.4h.4v.41h.41v.4h.41v.41h.4v.41h.41v.4h.41v.41h.4v.41h.41v.4h.41v.41h.4v.4h.41v.41h.4v.41h.41v.4h.41v.41h.4v.41h.41v.4h.41v.41h.4v.41h.41v.4h.4v.41h.41v.41h.41v.4h.4v.41h.41v.4h.41v.41h.4v.41h.41v.4h.4v.41h.41v.41h.41v.4h.4v.41h.41v.4h.41v.41h.4v.41h.41v.4h.41v.41h.4v.41h.41v.4h.4v.41h.82v.4h.81v.41h2.03v-.41h.81v-.4h.82v-.41h.4v-.4h.41v-.41h.41v-.41h.4v-.4h.41v-.41h.4v-.41h.41v-.4h.41v-.41h.4v-.4h.41v-.41h.41v-.41h.4v-.4h.41v-.41h.41v-.41h.4v-.4h.41v-.41h.4v-.4h.41v-.41h.41v-.41h.4v-.4h.41v-.41h.41v-.41h.4v-.4h.41v-.41h.41v-.41h.4v-.4h.41v-.41h.4v-.41h.41v-.4h.41v-.41h.4v-.4h.41v-.41h.41v-.41h.4v-.4h.41v-.41h.4v-.41h.41v-.4h.41v-.41h.4v-.4h.41v-.41h.41v-.41h.4v-.4h.41v-.41h.41v-.41h.4v-.4h.41v-.41h.4v-.4h.41v-.41h.41v-.41h.4v-.4h.41v-.41h.41v-.41h.4v-.4h.41v-.41h.41v-.41h.4v-.4h.41v-.41h.4v-.4h.41v-.41h.41v-.41h.4v-.4h.41v-.41h.41v-.41h.4v-.4h.41v-.41h.41v-.41h.4v-.4h.41v-.41h.4v-.4h.41v-.41h.41v-.41h.4v-.4h.41v-.41h.41v-.41h.4v-.4h.41v-.41h.4v-.4h.41v-.41h.41v-.41h.4v-.4h.41v-.41h.41v-.41h.4v-.4h.41v-.41h.41v-.41h.4v-.4h.41v-.41h.4v-.4h.41v-.41h.41v-.41h.4v-.4h.41v-.41h.41v-.41h.4v-.4h.41v-.41h.41v-.4h.4v-.41h.41v-.41h.4v-.4h.41v-.41h.41V334h.4v-.4h.41v-.41h.41v-.41h.4v-.4h.41v-.41h.4v-.4h.41v-.41h.41v-.41h.4v-.4h.41v-.41h.41v-.41h.4v-.4h.41v-.41h.41v-.4h.4v-.41h.41v-.41h.4v-.4h.41v-.41h.41v-.41h.4v-.4h.41v-.41h.41v-.41h.4v-.4h.41v-.41h.41v-.4h.4v-.41h.41v-.41h.4v-.4h.41v-.41h.41v-.41h.4v-.4h.41V321h.41v-.4h.4v-.41h.41v-.41h.4v-.4h.41v-.41h.41v-.41h.4v-.4h.41v-.41h.41v-.41h.4v-.4h.41v-.41h.4v-.4h.41v-.41h.41v-.41h.4v-.4h.41v-.41h.41v-.41h.4v-.4h.41v-.41h.41v-.4h.4v-.41h.41v-.41h.4v-.4h.41v-.41h.41v-.41h.4v-.4h.41v-.41h.41v-.41h.4v-.4h.41v-.41h.41v-.4h.4V308h.41v-.41h.4v-.4h.41v-.41h.41v.81h-.41v.41h-.41v.81h-.4v.81h-.41v.82h-.4v.4h-.41v.82h-.41v.81h-.4v.81h-.41v.81h-.41v.41h-.4v.81h-.41v.82h-.41v.81h-.4v.81h-.41v.41h-.4v.81h-.41v.81h-.41v.82h-.4v.81h-.41v.4h-.41v.82h-.4v.81h-.41v.81h-.41v.41h-.4v.81h-.41v.81h-.4v.82h-.41v.81h-.41v.41h-.4v.81h-.41v.81h-.41v.81h-.4v.82h-.41v.4h-.4v.81h-.41v.82h-.41v.81h-.4v.41h-.41v.81h-.41v.81h-.4v.81h-.41v.82h-.4v.4h-.41v.82h-.41v.81h-.4v.81h-.41v.81h-.41v.82h.41v1.22h.41v.4h.4v.41h.41v.4h.81v.41h68.67v-.41h.81v-.4h.41v-.41h.4v-.4h.41v-1.22h.41v-98.33h.4v1.21h.41v1.63h.41v1.22h.4v1.22h.41v1.62h.41v1.22h.4v1.63h.41v1.22h.4v1.62h.41v1.22h.41v1.63h.4v1.22h.41v1.21h.41v1.63h.4v1.22h.41v1.62h.41v1.22h.4v1.63h.41v1.22h.4v1.62h.41v1.22h.41v1.22h.4v1.63h.41v1.21h.41v1.63h.4v1.22h.41v1.62h.4v.82h.41v.4h.41v.41h.81v.41h2.03v-.41h.81v-.41h.41v-.4h.41v-.41h.4v-.41h.41v-.4h.41v-.41h.4v-.4h.41v-.41h.41v-.41h.4v-.4h.41v-.41h.4v-.41h.41v-.4h.41v-.41h.4v-.41h.41v-.4h.41v-.41h.4v-.4h.41v-.41h.4v-.41h.41v-.4h.41v-.41h.4v-.41h.41v-.4h.41v-.41h.4v-.4h.41v-.41h.41v-.41h.4v-.4h.41v-.41h.4v-.41h.41v-.4h.41v-.41h.4v-.41h.41v-.4h.41v-.41h.4v-.4h.41v-.41h.41v-.41h.4v-.4h.41v-.41h.4v-.41h.41v-.4h.41v-.41h.4v-.41h.41v-.4h.41v-.41h.4v-.4h.41v-.41h.4v-.41h.41v-.4h.41v-.41h.4v-.41h.41v-.4h.41v-.41h.4v-.4h.41v-.41h.41v-.41h.4v-.4h.41v-.41h.4v-.41h.41v-.4h.41v-.41h.4v-.41h.41v-.4h.41v-.41h.4v-.4h.41v-.41h.4v-.41h.41v-.4h.41v-.41h.4v-.41h.41v-.4h.41v-.41h.4v-.41h.41v-.4h.41v-.41h.4v-.4h.41v-.41h.4v-.41h.41v-.4h.41v-.41h.4v-.41h.41v-.4h.41v-.41h.4v-.41h.41v-.4h.4v-.41h.41v-.4h.41v-.41h.4v-.41h.41v-.4h.41v-.41h.4v-.41h.41v-.4h.41v-.41h.4v-.4h.41v-.41h.4v-.41h.41v-.4h.41v-.41h.4v-.41h.41v-.4h.41v-.41h.4v-.41h.41v-.4h.4v-.41h.41v-.4h.41v-.41h.4v-.41h.41v-.4h.41v-.41h.4v-.41h.41v-.4h.41v-.41h.4v-.4h.41v-.41h.4v-.41h.41v-.4h.41v-1.22h.4v-.82h-.4v-1.21h-.41v-.82h-.41v-.4h-.4v-.41h-.41v-.41h-.4v-.4h-.41v-.41h-.41v-.4h-.4v-.41h-.41v-.41h-.41v-.4h-.4v-.41h-.41v-.41h-.41v-.4h-.4v-.41h-.41v-.41h-.4v-.4h-.41v-.41h-.41v-.4h-.4v-.41h-.41v-.41h-.41v-.4h-.4v-.41h-.41v-.41h-.4v-.4h-.41v-.41h-.41v-.4h-.4v-.41h-.41v-.41h-.41v-.4h-.4v-.41h-.41v-.41h-.41v-.4h-.4v-.41h-.41v-.41h-.4v-.4h-.41v-.41h-.41v-.4h-.4v-.41h-.41v-.41h-.41v-.4h-.4v-.41h-.41v-.41h-.4v-.4h-.41v-.41h-.41v-.4h-.4v-.41h-.41v-.41h-.41v-.4h-.4v-.41h-.41v-.41h-.41v-.4h-.4v-.41h-.41v-.41h-.4v-.4h-.41v-.41h-.41v-.4h-.4v-.41h-.41v-.41h-.41v-.4h-.4v-.41h-.41v-.41h-.4v-.4h-.41v-.41h-.41v-.4h-.4v-.41h-.41v-.41h-.41v-.4h-.4v-.41h-.41v-.41h-.41v-.4h-.4v-.41h-.41v-.41h-.4v-.4h-.41v-.41h-.41v-.4h-.4v-.41h-.41v-.41h-.41v-.4h-.4v-.41h-.41v-.41h-.4v-.4h-.41v-.41h-.41v-.4h-.4v-.41h-.41v-.41h-.41v-.4h-.4v-.41h-.41v-.41h-.41v-.4h-.4v-.41h-.41v-.41h-.4v-.4h-.41v-.41h-.41v-.4h-.4v-.41h-.41v-.41h-.41v-.4h-.4v-.41h-.41v-.41h-.41v-.4h-.4v-.41h-.41v-.41h-.4v-.4h-.41v-.41h-.41v-.4h-.4v-.41h-.41v-.41h-.41v-.4h-.4v-.41h-.41v-.41h-.4v-.4h-.41v-.41h-.41v-.4h-.4v-.41h-.41v-.41h-.41v-.4h-.4v-.41h-.41v-.41h-.41v-.4h-.4v-.41h-.41v-.4h-.4v-.41h-.41v-.41h-.41v-.4h-.4v-.41h-.41v-.41h-.41v-.4h-.4v-.41h-.41v-.41h-.41v-.4h-.4v-.41h-.41v-.41h-.4v-.4h-.41v-.41h-.41v-.4h-.4v-.41h-.41v-.41h-.41v-.4h-.4v-.41h-.41v-.41h-.4v-.4h-.41v-.41h-.41v-.4h-.4v-.41h-.41v-.41h-.41v-.4h-.4v-.41h-.41v-.41h-.41v-.4h-.4v-.41h-.41v-.4h-.4v-.41h-.41v-.41h-.41v-.4h-.4v-.41h-.41v-.41h-.41v-.4h-.4v-.41h-.41V167h-.41v-.4h-.4v-.41h-.41v-.41h-.4v-.4h-.41v-.41h-.41v-.4h-.4v-.41h-.41v-.41h-.41v-.4h-.4v-.41h-.41v-.41h-.4v-.4h-.41v-.41h.81v.41h.41v.4h.81v.41h.81v.41h.82v.4h.81v.41h.4v.41h.82v.4h.81v.41h.81v.4h.82v.41h.81v.41h.4v.4h.82v.41h.81v.41h.81v.4h.82v.41h.4v.41h.81v.4h.82v.41h.81v.41h.81v.4h.81v.41h.41v.4h.81v.41h.82v.41h.81v.4h.81v.41h.81v.41h.41v.4h.81v.41h.82v.4h.81v.41h.81v.41h.41v.4h.81v.41h.81v.41h.82v.4h.81v.41h.81v.4h.41v.41h.81v.41h.81v.4h.82v.41h.81v.41h.4v.4h.82v.41h2.03v-.41h.81v-.4h.41v-.41h.4v-.41h.41v-1.62h.41v-67.05h-.41v-1.21h-.41v-.41h-.4v-.41h-.41v-.4h-.81v-.41h-99.55v-.41h1.22v-.4h1.22v-.41h1.62v-.4h1.63v-.41h1.22v-.41h1.62v-.4h1.22v-.41h1.63v-.41h1.22v-.4h1.62v-.41h1.22v-.41h1.62v-.4h1.22v-.41h1.63v-.4h1.62v-.41h1.22v-.41h1.63v-.4h1.22v-.41h1.62v-.41h1.22v-.4h1.63v-.41h1.22v-.4h1.62v-.41h1.22v-.41h1.62v-.4h1.22v-.41h1.63v-.41h.81v-.4h.41v-.82h.4v-2.84h-.4v-.41h-.41v-.81h-.4v-.4h-.41v-.41h-.41v-.41h-.4v-.4h-.41v-.41h-.41v-.41h-.4v-.4h-.41v-.41h-.41v-.41h-.4v-.4h-.41v-.41h-.4v-.4h-.41v-.41h-.41v-.41h-.4v-.4h-.41v-.41h-.41v-.41h-.4v-.4h-.41v-.41h-.4v-.4h-.41v-.41h-.41v-.41h-.4v-.4h-.41v-.41h-.41v-.41h-.4v-.4h-.41v-.41h-.41v-.41h-.4v-.4h-.41v-.41h-.4v-.4h-.41v-.41h-.41v-.41h-.4v-.4h-.41v-.41h-.41v-.41h-.4v-.4h-.41v-.41h-.4v-.4h-.41v-.41h-.41v-.41h-.4v-.4h-.41v-.41h-.41v-.41h-.4v-.4h-.41v-.41h-.41v-.41h-.4v-.4h-.41v-.41h-.4v-.4h-.41v-.41h-.41v-.41h-.4v-.4h-.41v-.41h-.41v-.41h-.4v-.4h-.41v-.41h-.4v-.41h-.41v-.4h-.41v-.41h-.4v-.4h-.41v-.41h-.41v-.41h-.4v-.4h-.41v-.41h-.4v-.41h-.41v-.4h-.41v-.41h-.4v-.4h-.41v-.41h-.41v-.41h-.4v-.4h-.41v-.41h-.41v-.41h-.4v-.4h-.41v-.41h-.4v-.41h-.41v-.4h-.41v-.41h-.4v-.4h-.41v-.41h-.41v-.41h-.4v-.4h-.41v-.41h-.41v-.41h-.4v-.4h-.41v-.41h-.4v-.41h-.41v-.4h-.41v-.41h-.4v-.4h-.41v-.41h-.41v-.41h-.4v-.4h-.41v-.41h-.4v-.41h-.41v-.4h-.41v-.41h-.4v-.41h-.41v-.4h-.41v-.41h-.4v-.4h-.41v-.41h-.4v-.41h-.41v-.4h-.41v-.41h-.4v-.41h-.41v-.4h-.41v-.41h-.4v-.4h-.41v-.41h-.41v-.41h-.4v-.4h-.41v-.41h-.4v-.41h-.82v-.4h-.4v-.41h-2.85v.41h-.81v.4h-.41v.41h-.4v.41h-.41v.4h-.41v.41h-.4v.41h-.41v.4h-.4v.41h-.41v.4h-.41v.41h-.4v.41h-.41v.4h-.41v.41h-.4v.41h-.41v.4h-.41v.41h-.4v.4h-.41v.41h-.4v.41h-.41v.4H244v.41h-.4v.41h-.41v.4h-.41v.41h-.4v.41h-.41v.4h-.41v.41h-.4v.4h-.41v.41h-.4v.41h-.41v.4h-.41v.41h-.4v.41h-.41v.4h-.41v.41h-.4v.41h-.41v.4h-.4v.41h-.41v.4h-.41v.41h-.4v.41h-.41v.4h-.41v.41h-.4v.41h-.41v.4h-.41v.41h-.4v.41h-.41v.4h-.4v.41h-.41v.4h-.41v.41h-.4v.41H231v.4h-.41v.41h-.4v.41h-.41v.4h-.41v.41h-.4v.4h-.41v.41h-.4v.41h-.41v.4h-.41v.41h-.4v.41h-.41v.4h-.41v.41h-.4v.41h-.41v.4h-.41v.41h-.4v.4h-.41v.41h-.4v.41h-.41v.4h-.41v.41h-.4v.41h-.41v.4h-.41v.41h-.4v.41h-.41v.4h-.4v.41h-.41v.4h-.41v.41h-.4v.41h-.41v.4h-.41v.41h-.4v.41h-.41v.4h-.41v.41h-.4v.4h-.41v.41h-.4v.41h-.41v.4h-.41v.41h-.4v.41h-.41v.4h-.41v.41h-.4v.41h-.41v.4h-.41v.41h-.4v.4h-.41v.41h-.4v.41h-.41v.4h-.41v.41h-.4v.41h-.41v.4h-.41v.41h-.4v.4h-.41v.41h-.4v.41h-.41v.4h-.41v.41h-.4v.41h-.41v.4h-.41v.41h-.4v.41h-.41v.4h-.41v.41h-.4v.4h-.41v.41h-.4v.41h-.41v.4h-.41v.41h-.4v.41h-.41v.4h-.41v.41h-.4v.4h-.41v.41h-.41v.41h-.4v.4h-.41v.41h-.4v.41h-.41v.4h-.41v.41h-.4v.41h-.41v.4h-.41v.41h-.4v.4h-.41v.41h-.4v.41h-.41v.4h-.41v.41h-.4v.41h-.41v.4h-.41v.41h-.4v.4h-.41v.41h-.4v.41h-.41v.4h-.41v.41h-.4v.41h-.41v.4h-.41v.41h-.4v.41h-.41v.4h-.41v.41h-.4v.4h-.41v.41h-.4v.41h-.41v.4h-.41v.41h-.4v.41h-.41v.4h-.41v.41h-.4v.4h-.41v.41h-.41v.41h-.4v.4h-.41v.41h-.4v.41h-.41v.4h-.41v.41h-.4v.41h-.41zM80.25 439.65h-.4v.81h-.41v.81h-.41v.41h-.4v.41h-.41v.4h-.4v.41H77v.41h-.81v.4h-.81v.41h-1.63v.4H59.53v-16.25h15.03v.41h1.22v.4h.82v.41h.81v.41h.41v.4h.4v.41h.41v.41h.4v.4h.41v.81h.41v.82h.4v1.22h.41v4.06h-.41v1.22zm-30.47-45.1h-1.22v.4h-.81v.41h-.41v.41h-.4v.4h-.41v.81h-.41v56.89h.41v.81h.41v.41h.4v.4h.81v.41h.82v.41h29.25v-.41h2.03v-.41h1.22v-.4h1.22v-.41h.81v-.4h.82v-.41h.81v-.41h.81v-.4h.41v-.41h.81v-.41h.41v-.4h.4v-.41h.41v-.4h.41v-.41h.4v-.41h.41v-.4h.4v-.41h.41v-.41h.41v-.4h.4v-.82h.41v-.4h.41v-.81h.4v-.82h.41v-.81h.41v-.81h.4v-1.22h.41v-1.22h.4v-2.03h.41v-6.5h-.41v-1.63h-.4v-1.22h-.41v-1.22h-.4v-.81h-.41v-.81h-.41v-.81h-.4v-.41h-.41v-.81h-.41v-.41h-.4v-.81h-.41v-.41H90v-.4h-.4v-.41h-.41v-.41h-.4v-.4h-.41v-.41h-.41v-.41h-.4v-.4h-.41v-.41h-.81v-.4h-.41v-.41h-.81v-.41h-.41v-.4h-.81v-.41h-1.22v-.41h-.81v-.4h-1.22v-.41h-2.03v-.41h-19.1v-10.97h27.63v-.4h.41v-.81h.4v-9.35h-.4v-.81h-.82v-.41H49.78v.41zM159.89 394.55h-1.22v.4h-.4v.41h-.41v.41h-.4v.4h-.41v.81h-.41v1.22h-.4v4.47h-.41v6.91h-.41v6.91h-.4v5.69h-.41v4.87h-.41v4.07h-.4v2.84h-.41v2.03h-.4v1.63h-.41v1.22h-.41v1.21h-.4v.82h-.41v.81h-.41v.41h-.4v.4h-.41v.41h-.4v.41h-.41v.4h-.41v.41h-1.22v.4h-2.43v.41h-.41v.41h-.41v10.15h.41v.41h.41v.41h6.09v-.41h2.03v-.41h1.22v-.4h.81v-.41h.82v-.4h.4v-.41h.82v-.41h.4v-.4h.41v-.41h.4v-.41h.41v-.4h.41v-.41h.4v-.4h.41v-.41h.41v-.81h.4v-.41h.41v-.81h.41v-.41h.4v-.81h.41v-.81h.4v-.82h.41v-1.22h.41v-.81h.4v-1.22h.41v-1.22h.41v-1.62h.4v-2.03h.41v-2.03h.4v-2.44h.41v-3.25h.41v-4.07h.4v-4.87h.41v-5.69h.41v-6.5h.4v-2.44h17.07v49.57h.4v.41h12.6v-.41h.41v-58.92h-.41v-.81h-.41v-.4h-.4v-.41h-.41v-.41h-.81v-.4h-1.22v-.41h-35.76zM208.65 394.55h-.81v.4h-.41v60.95h.41v.41h12.6v-.41h.4v-27.22h9.75v.4h2.44v.41h1.22v.41h.81v.4h.41v.41h.41v.41h.4v.4h.41v.41h.41v.4h.4v.82h.41v.81h.4v.81h.41v1.22h.41v1.63h.4v1.22h.41v1.62h.41v1.63h.4v1.22h.41v1.62h.4v1.22h.41v1.62h.41v1.22h.4v1.63h.41v1.22h.41v1.62h.4v1.22h.41v1.22h.41v.41h12.19v-.41h.4v-.41h.41v-1.62h-.41v-1.63h-.4v-1.21h-.41v-1.63h-.41v-1.63h-.4v-1.62h-.41v-1.22h-.41v-1.62h-.4v-1.63h-.41v-1.63h-.41v-1.21h-.4v-1.63h-.41v-1.62h-.4v-1.63h-.41v-1.22h-.41v-1.22h-.4v-1.22h-.41v-.81h-.41v-.81h-.4v-.81h-.41v-.41h-.4v-.81h-.41v-.41h-.41v-.41h-.81v-.4h-.41v-.41h-.4v-.41h-.82v-.4h-.81v-.41h-.81v-.4h-1.22v-.41h.41v-.41h.81v-.4h.41v-.41h.4v-.41h.41v-.4h.4v-.41h.41v-.4h.41v-.41h.4v-.41h.41v-.4h.41v-.82h.4v-.4h.41v-.82h.41v-.81h.4v-.81h.41v-1.22h.4v-1.22h.41v-1.62h.41v-1.63h.4v-1.62h.41v-1.63h.41v-1.62h.4v-1.63h.41v-1.63h.4v-1.62h.41v-1.22h.41v-1.63h.4v-2.03h-.4v-.4h-.82v-.41h-10.56v.41h-.81v.4h-.41v.82h-.41v1.62h-.4v1.63h-.41v1.21h-.4v1.63h-.41v1.63h-.41v1.62h-.4v1.22h-.41v1.63h-.41v1.62h-.4v1.22h-.41v1.22h-.4v1.22h-.41v.81h-.41v.41h-.4v.81h-.41v.41h-.41v.4h-.4v.41h-.41v.4h-.81v.41h-.81v.41h-1.22v.4h-10.57v-23.16h-.4v-.4h-.82v-.41h-10.97zM280.57 431.52h.41v-1.22h.4v-1.22h.41v-1.62h.41v-1.22h.4v-1.22h.41v-1.62h.41v-1.22h.4v-1.22h.41v-1.63h.4v-1.62h.41v-1.63h.41v-1.22h.4v-1.62h.41v-1.63h.41v-1.62h.4v-1.22h.41v.4h.41v1.63h.4v1.62h.41v1.63h.4v1.22h.41v1.62h.41v1.63h.4v1.63h.41v1.62h.41v1.22h.4v1.22h.41v1.62h.4v1.22h.41v1.22h.41v1.63h.4v1.22h.41v1.21h-13.41v-.81zm1.63-36.97h-1.22v.4h-.41v.41h-.4v.41h-.41v.4h-.41v.41h-.4v.81h-.41v.81h-.41v1.22h-.4v1.22h-.41v1.22h-.4v1.22h-.41v1.22h-.41v1.22h-.4v1.22h-.41v1.22h-.41v1.21h-.4v1.22h-.41v1.22h-.41v1.22h-.4v1.22h-.41v1.22h-.4v1.22h-.41v1.22h-.41v1.22h-.4v1.22h-.41v1.21h-.41v1.22h-.4v1.22h-.41v1.22h-.41v1.22h-.4v1.22h-.41v1.22h-.4v1.22h-.41v1.22h-.41v1.21h-.4v1.22h-.41v1.22h-.41v1.22h-.4v1.22h-.41v1.22h-.4v1.22h-.41v1.22h-.41v1.22h-.4v1.22h-.41v1.21h-.41v1.22h-.4v1.22h-.41v1.22h-.4v1.63h-.41v1.22h-.41v1.21h-.4v1.22h-.41v1.22h-.41v.41h.41v.81h.41v.41h13v-.41h.4v-1.22h.41v-1.22h.41v-1.22h.4v-1.21h.41v-1.63h.41v-1.22h.4v-1.22h.41v-1.22h.41v-1.62h.4v-.41h20.32v1.22h.4v1.63h.41v1.21h.41v1.22h.4v1.63h.41v1.22h.4v1.22h.41v1.62h.41v.81h.4v.41h.41v.41h13v-.41h.41v-2.44h-.41v-1.22h-.4v-1.21h-.41v-1.22h-.41v-1.22h-.4v-1.22h-.41v-1.22h-.41v-1.22h-.4v-1.22h-.41v-1.22h-.4v-1.22h-.41v-1.22h-.41v-1.21h-.4v-1.22h-.41v-1.22h-.41v-1.22h-.4v-1.22h-.41v-1.22h-.4v-1.22h-.41v-1.22h-.41v-1.22h-.4v-1.21h-.41v-1.22h-.41v-1.22h-.4v-1.22h-.41v-1.22h-.41v-1.22h-.4v-1.22h-.41v-1.22h-.4v-1.22h-.41v-1.22h-.41v-1.21h-.4v-1.22h-.41v-1.22h-.41v-1.22h-.4v-1.22h-.41v-1.22h-.41v-1.22h-.4v-1.22h-.41v-1.22h-.4v-1.21h-.41v-1.22h-.41v-1.22h-.4v-1.22h-.41v-1.22h-.41v-1.22h-.4v-1.22h-.41v-.81h-.4v-.41h-.41v-.4h-.41v-.41h-.4v-.41h-.82v-.4h-1.22v-.41H282.2v.41zM112.35 394.55h-1.62v.4h-1.22v.41h-1.22v.41h-.81v.4h-.82v.41h-.4v.4h-.81v.41h-.41v.41h-.81v.4h-.41v.41h-.41v.41h-.4v.4h-.41v.41h-.41v.81h-.4v.41h-.41v.4h-.4v.82h-.41v.4h-.41v.82h-.4v.81h-.41v1.22h-.41v1.22h-.4v2.43h-.41v32.51h.41v2.03h.4v1.63h.41v.81h.41v.81h.4v.81h.41v.82h.41v.81h.4v.41h.41v.4h.4v.41h.41v.41h.41v.4h.4v.41h.41v.4h.41v.41h.4v.41h.41v.4h.81v.41h.41v.41h.81v.4h.81v.41h.82v.4h1.21v.41h1.63v.41h29.66v-.41h.41v-10.97h-.81v-.41h-25.6v-.4h-1.22v-.41h-.41v-.4h-.4v-.41h-.41v-.41h-.41v-.81h-.4v-13.41h26v-.4h.41v-.41h.4V417.3h-.4v-.41h-26.41v-8.12h.4v-.81h.41v-.41h.41v-.41h.4v-.4h.81v-.41h1.22v-.41h25.6v-.4h.41v-10.57h-.41v-.4h-.81v-.41h-28.04zM352.09 416.89h-.41v.82h-.41v.81h-.4v.41h-.41v.4h-.41v.41h-.4v.41h-.41v.4h-.41v.41h-.81v.4h-.81v.41h-1.63v.41h-13v-16.26h12.6v.41h1.62v.41h1.22v.4h.81v.41h.41v.41h.41v.4h.4v.41h.41v.4h.41v.41h.4v.81h.41v.82h.41v2.03h.4v1.62h-.4v2.03zm-29.67-22.34h-1.22v.4h-.4v.41h-.81v.81h-.41v.41h-.41v1.22h-.4v57.69h.4v.41h.41v.41h12.19v-.41h.4v-.81h.41v-21.13h16.25v-.41h2.44v-.4h1.63v-.41h1.22v-.41h.81v-.4h.81v-.41h.81v-.4h.82v-.41h.4v-.41h.82v-.4h.4v-.41h.41v-.41h.41v-.4h.4v-.41h.81v-.4h.41v-.82h.41v-.4h.4v-.41h.41v-.41h.41v-.81h.4v-.41h.41v-.81h.41v-.81h.4v-.81h.41v-.82h.4v-1.21h.41v-1.63h.41v-2.44h.4v-4.47h-.4v-2.03h-.41v-1.62h-.41v-1.22h-.4v-.82h-.41v-.81h-.4v-.81h-.41v-.81h-.41v-.41h-.4v-.81h-.41v-.41h-.41v-.41h-.4v-.4h-.41v-.82h-.41v-.4h-.4v-.41h-.81v-.4h-.41v-.41h-.41v-.41h-.4v-.4h-.82v-.41h-.4v-.41h-.82v-.4h-.81v-.41h-.81v-.4h-1.22v-.41h-.81v-.41h-1.63v-.4h-3.25v-.41h-25.6v.41zM368.34 394.55h-.81v.81h-.41v9.75h.41v.41h.4v.4h16.66v49.57h.41v.41h.4v.41h12.19v-.41h.41v-.41h.41v-49.57h17.06v-.4h.41v-10.57h-.41v-.4h-.41v-.41h-46.72z"/>
</svg>